<svg aria-hidden="true" style="position:absolute;width:0;height:0" xmlns="http://www.w3.org/2000/svg" overflow="hidden">
<defs>
    <symbol id="icon-logo" viewBox="0 0 39 32">
        <path d="m22.377 9.64-.741-.571a.56.56 0 0 0-.791.079l-.001.001-10.251 11.897.159.177 2.538-2.366a.398.398 0 0 1-.099-.672l.001-.001a.387.387 0 0 1 .245-.087h.008c.173 0 .318.114.366.272l.001.003 3.347-3.137a.285.285 0 0 1 .363.001l.17.126a.28.28 0 0 0 .379-.045l4.376-4.96a.47.47 0 0 0 .13-.326l-.002-.048v.002a.477.477 0 0 0-.195-.341l-.001-.001z"/>
        <path d="M27.194 12.989a22.52 22.52 0 0 1-7.258 3.477l-.16.037c-2.376.638-5.138 1.072-7.978 1.208l-.091.003c.055.406.153.805.294 1.189 1.538 1.406 13.118-.994 15.379-3.771.481-.577-.186-2.143-.186-2.143zm-13.75 5.868a.382.382 0 0 1-.354-.237l-.001-.003a.394.394 0 0 1 .084-.423.383.383 0 0 1 .656.269v.01a.38.38 0 0 1-.38.383h-.005zM2.503 12.166l.09-.394 1.47.337c.121.226.197.475.221.731a2.43 2.43 0 0 1-.051.811 2.164 2.164 0 0 1-.488.997l.002-.003a1.95 1.95 0 0 1-.857.568l-.014.004a2.057 2.057 0 0 1-1.082.038l.014.003a1.977 1.977 0 0 1-.945-.504l.001.001a1.89 1.89 0 0 1-.534-.884l-.003-.013A2.189 2.189 0 0 1 .331 12.7l-.004.015c.061-.28.17-.547.322-.789a1.65 1.65 0 0 1 .565-.531l.203.314a1.646 1.646 0 0 0-.487.467l-.004.006a1.624 1.624 0 0 0-.254.625l-.001.01a1.799 1.799 0 0 0 .02.91l-.003-.013c.076.278.226.529.435.726.214.21.483.354.774.417.283.08.583.08.865 0 .271-.09.514-.25.707-.463.198-.23.334-.507.396-.806a1.754 1.754 0 0 0-.072-1.103l.004.012-1.295-.331zm3.2-3.595-1.317 1.777.566 1.023-.261.354L2.6 7.868l.243-.337 4.257.926-.266.354-1.131-.24zM5.33 8.48l-2.262-.514 1.131 2.051 1.13-1.537zm0-3.594.339-.257 2.154 2.914L9.598 6.2l.215.291-2.109 1.594-2.375-3.2zm3.562-2.383.379-.171 1.493 3.303 2.019-.926.147.331-2.397 1.103-1.64-3.64zm7.452 1.314.085.36-2.726.646-.905-3.897 2.647-.623.079.354-2.262.531.322 1.383 1.99-.474.085.354-1.996.469.339 1.446 2.341-.549zm3.885.143-.944-1.257a2.794 2.794 0 0 1-.317 0l-1.063.034.039 1.269h-.418l-.13-4L18.9 0a1.765 1.765 0 0 1 1.204.329l-.005-.004c.284.234.463.586.463.98v.015-.001c.017.282-.057.563-.209.8a1.326 1.326 0 0 1-.647.483l-.009.003.99 1.337-.458.017zm-.396-1.88a.907.907 0 0 0 .288-.753v.004-.019A.928.928 0 0 0 19.789.6l-.001-.001a1.35 1.35 0 0 0-.893-.234h.005l-1.074.04.068 2 1.051-.034a1.345 1.345 0 0 0 .891-.293l-.003.002zm3.387.817-.203 1.366-.413-.063.209-1.343L21.643 0l.441.069 1.001 2.434L24.782.486l.395.086-1.956 2.326zm5.591-.24.493.646-.215.171-.492-.663-.311.749-.238-.103.317-.749-.814.109v-.274l.803-.091-.497-.646.221-.171.435.651.305-.754.243.103-.288.766.814-.114v.28l-.775.091zm1.89 4.606a1.58 1.58 0 0 1-.243-.684l-.001-.007.334-.149c.025.226.098.445.215.64.126.219.291.413.486.571.202.195.459.321.735.36a.609.609 0 0 0 .53-.221l.001-.001a.514.514 0 0 0 .13-.391v.002a1.052 1.052 0 0 0-.138-.399l.003.005a5.65 5.65 0 0 0-.356-.523l.011.015a5.08 5.08 0 0 1-.393-.602l-.014-.026a1.134 1.134 0 0 1-.147-.536v-.001c0-.211.079-.416.221-.571.123-.151.286-.263.47-.326a1.113 1.113 0 0 1 .636.002l-.008-.002c.264.087.509.227.718.411.174.146.328.315.458.503.12.174.21.367.266.571l-.322.171a2.036 2.036 0 0 0-.253-.545l.005.007a2.08 2.08 0 0 0-.375-.391l-.004-.003a1.243 1.243 0 0 0-.724-.348l-.006-.001a.605.605 0 0 0-.531.233l-.001.001a.492.492 0 0 0-.13.39v-.002a.931.931 0 0 0 .135.406c.079.131.193.303.345.509a4.8 4.8 0 0 1 .407.617c.094.163.146.349.153.537a.842.842 0 0 1-.221.571c-.121.15-.282.263-.467.324l-.007.002a1.07 1.07 0 0 1-.629 0 2.118 2.118 0 0 1-.726-.413l.002.002a2.604 2.604 0 0 1-.559-.695l-.007-.013zm5.688.834-.797-1.143.294-.211 1.838 2.651-.294.211-.798-1.143-2.951 2.086-.237-.349 2.946-2.103zm-1.267 4.697c.101-.345.297-.655.565-.891.253-.23.566-.396.914-.472l.013-.002a2.04 2.04 0 0 1 1.077.044l-.014-.004c.344.117.636.314.863.569l.002.002c.243.283.409.626.481.994a2.21 2.21 0 0 1-.004 1.118l.003-.015a1.963 1.963 0 0 1-.564.89l-.002.002a2.07 2.07 0 0 1-2.034.442l.015.004a1.903 1.903 0 0 1-.862-.569l-.002-.002a2.154 2.154 0 0 1-.478-.975l-.002-.014a2.228 2.228 0 0 1 .033-1.136l-.004.016zm.741 1.817a1.554 1.554 0 0 0 1.197.534c.442 0 .846-.165 1.152-.438l-.002.002c.208-.194.362-.44.446-.714a1.85 1.85 0 0 0-.369-1.682l.002.003a1.618 1.618 0 0 0-.718-.46l-.011-.003a1.664 1.664 0 0 0-.882.003l.012-.003a1.55 1.55 0 0 0-.769.395l.001-.001a1.59 1.59 0 0 0-.447.72 1.747 1.747 0 0 0 .002.898l-.003-.012c.062.283.197.546.39.76zm-1.171 4.818 1.465-.571c0-.103.034-.206.063-.314l.277-1.034-1.199-.314.107-.406 3.823 1.034-.385 1.446a1.82 1.82 0 0 1-.652 1.06l-.004.003a1.201 1.201 0 0 1-1.083.157l.009.003a1.231 1.231 0 0 1-.691-.428l-.002-.002a1.247 1.247 0 0 1-.274-.775l-1.56.571.107-.429zm1.894.16c.134.242.356.421.621.495l.007.002a.995.995 0 0 0 .795-.117l-.004.002c.25-.203.42-.488.48-.806l.272-1.029-1.917-.52-.271 1.029a1.39 1.39 0 0 0 .02.953l-.003-.009zm-3.923 3.52-.289-.223 1.696-2.257 3.155 2.417-1.64 2.189-.288-.223 1.386-1.846-1.131-.863-1.238 1.651-.282-.217 1.266-1.651-1.17-.897-1.465 1.92zm-1.324 4.554-.809.046v-.274l.809-.006-.435-.68.221-.143.43.686.35-.766.243.131-.385.72.809-.046v.28h-.82l.435.68-.221.143-.43-.686-.373.743-.237-.137.413-.691zm-7.35-.457.685.383a1.752 1.752 0 0 1 1.119-.9l.012-.003a1.73 1.73 0 0 1 .703-.074l-.007-.001c.203.016.399.087.566.206.15.114.261.274.316.457.069.226.057.469-.034.686a2.872 2.872 0 0 1-.566.794c.187.101.36.226.514.371.107.111.186.246.233.394a.767.767 0 0 1-.148.67l.001-.001a1.087 1.087 0 0 1-.626.438l-.008.002a.962.962 0 0 1-.708-.003l.007.002a.71.71 0 0 1-.406-.481l-.001-.005a.78.78 0 0 1 .042-.576l-.002.005c.137-.27.304-.502.503-.703l-1.362-.766a2.669 2.669 0 0 0-.033.83l-.001-.012h-.345a2.757 2.757 0 0 1 .118-1.014l-.005.02-.713-.4.147-.32zm.984.571 1.498.84c.197-.19.359-.411.481-.657a.723.723 0 0 0 0-.514.623.623 0 0 0-.391-.427l-.004-.001a1.099 1.099 0 0 0-.732.003l.008-.002a1.362 1.362 0 0 0-.878.735l-.004.008.023.017zm2.125 2.286a.508.508 0 0 0 .044-.426l.001.004a.71.71 0 0 0-.181-.297 2.448 2.448 0 0 0-.456-.308l-.013-.006a2.98 2.98 0 0 0-.447.571.566.566 0 0 0-.044.427l-.001-.004a.488.488 0 0 0 .246.302l.003.001a.626.626 0 0 0 .447 0 .671.671 0 0 0 .379-.269l.023.006zm-10.001 1.548.079-4h.402l-.063 3.2 1.606-2.663h.198l1.505 2.709.057-3.183h.401l-.074 4h-.345L19.2 28.685l-1.758 2.931-.345-.006zm-1.968-4.182a1.95 1.95 0 0 1 .598 1.411c0 .202-.03.396-.087.58l.004-.014a2.037 2.037 0 0 1-.537.931c-.251.25-.567.424-.91.503a2.153 2.153 0 0 1-1.113-.039l.015.004a2.124 2.124 0 0 1-.951-.521l.001.001a1.926 1.926 0 0 1-.523-.889l-.003-.013a2.136 2.136 0 0 1 .022-1.097l-.004.015c.105-.366.294-.679.547-.93.239-.242.541-.421.88-.511l.014-.003a2.124 2.124 0 0 1 1.106.039l-.015-.004c.375.098.697.285.956.538zm-1.928-.2a1.51 1.51 0 0 0-.729.411 1.643 1.643 0 0 0-.427.748l-.003.012a1.641 1.641 0 0 0 0 .874c.066.278.21.531.413.731.213.21.475.362.763.44.287.074.589.074.876 0 .277-.069.531-.211.735-.411.207-.21.355-.473.43-.76a1.684 1.684 0 0 0-.003-.892l.003.012a1.605 1.605 0 0 0-.418-.731 1.691 1.691 0 0 0-.757-.432l-.012-.003a1.61 1.61 0 0 0-.882.003l.011-.003zM8.92 24.571l.153 1.571c.097.042.191.09.282.143l.922.537.622-1.109.367.211-1.979 3.446-1.289-.749a1.818 1.818 0 0 1-.844-.902l-.004-.012a1.269 1.269 0 0 1 .127-1.091l-.003.005c.131-.25.34-.451.594-.571.257-.108.543-.13.814-.063l-.164-1.68.402.263zm-.644 1.806a1.022 1.022 0 0 0-.633.481l-.003.005a1.026 1.026 0 0 0-.092.808l-.002-.007a1.4 1.4 0 0 0 .65.68l.91.531.99-1.714-.91-.531a1.377 1.377 0 0 0-.838-.282l-.076.002h.004v.029zm-2.703-4.486.254-.257 1.951 2.029-2.827 2.789-1.883-1.966.261-.257 1.6 1.663.967-.989-1.402-1.474.271-.263 1.43 1.486 1.051-1.034-1.673-1.726zm-4.202-2.245.137-.789.266.04-.153.811.751-.28.091.251-.763.263.627.537-.181.206-.605-.571-.142.811-.271-.051.158-.811-.757.274-.085-.223.758-.269-.627-.531.186-.206.611.537z"/>
    </symbol>    
    <symbol id="icon-linkedin" viewBox="0 0 32 32">
      <path d="M31.992 32H32V20.262c0-5.741-1.237-10.163-7.947-10.163-3.227 0-5.392 1.77-6.277 3.45h-.093v-2.914h-6.365v21.363h6.627V21.42c0-2.786.528-5.48 3.978-5.48 3.398 0 3.448 3.179 3.448 5.658V32h6.621z"/>
      <path d="M.528 10.635h6.635V32H.528V10.635z"/>
      <path d="M3.843 0A3.843 3.843 0 0 0 0 3.843c0 2.12 1.722 3.878 3.843 3.878 2.12 0 3.842-1.757 3.842-3.878S5.965.002 3.844 0z"/>
    </symbol>
    <symbol id="icon-facebook" viewBox="0 0 32 32">
      <path d="M21.328 5.312h2.923V.224A36.483 36.483 0 0 0 20.143 0h-.156.008c-4.213 0-7.099 2.65-7.099 7.52V12H8.25v5.688h4.646V32h5.699V17.69h4.459l.707-5.688h-5.168V8.08c0-1.643.443-2.768 2.734-2.768z"/>
    </symbol>
    <symbol id="icon-twitter" viewBox="0 0 32 32">
      <path d="M32 6.078c-1.1.493-2.376.857-3.713 1.028l-.068.007a6.556 6.556 0 0 0 2.873-3.579l.013-.046a12.88 12.88 0 0 1-4.076 1.573l-.084.014A6.558 6.558 0 0 0 15.6 9.557v.004c0 .52.043 1.021.152 1.496-5.454-.266-10.28-2.88-13.522-6.861a6.524 6.524 0 0 0-.902 3.313v.001a6.57 6.57 0 0 0 2.914 5.451 6.453 6.453 0 0 1-2.994-.823l.033.017v.072a6.592 6.592 0 0 0 5.213 6.44l.043.008a6.403 6.403 0 0 1-1.662.215h-.061.003c-.419 0-.843-.024-1.242-.112.85 2.598 3.261 4.509 6.13 4.57a13.093 13.093 0 0 1-8.122 2.8H1.57h.001-.062c-.531 0-1.055-.034-1.569-.099l.061.006c2.826 1.846 6.287 2.944 10.004 2.944h.063-.003c12.072 0 18.672-10 18.672-18.669 0-.288-.01-.57-.024-.848a13.203 13.203 0 0 0 3.258-3.355l.03-.047z"/>
    </symbol>
    <symbol id="icon-instagram" viewBox="0 0 32 32">
      <path d="M31.968 9.408c-.074-1.701-.349-2.869-.742-3.882a7.839 7.839 0 0 0-1.85-2.837l-.001-.001A7.906 7.906 0 0 0 26.597.861l-.054-.018C25.524.449 24.362.176 22.661.101 20.949.019 20.405 0 16.059 0c-4.344 0-4.888.019-6.595.094-1.699.074-2.869.349-3.88.742a7.847 7.847 0 0 0-2.839 1.85l-.001.001A7.9 7.9 0 0 0 .919 5.465l-.018.054C.506 6.538.232 7.7.157 9.401c-.082 1.712-.101 2.256-.101 6.602 0 4.344.019 4.888.094 6.595.075 1.701.35 2.869.744 3.882a7.915 7.915 0 0 0 1.849 2.837l.001.001c.8.813 1.77 1.443 2.832 1.843 1.019.395 2.182.67 3.882.744 1.707.075 2.251.094 6.595.094 4.346 0 4.89-.019 6.595-.094 1.701-.074 2.869-.349 3.882-.742a8.237 8.237 0 0 0 4.664-4.628l.019-.055c.394-1.019.669-2.182.744-3.882.075-1.707.093-2.251.093-6.595s-.006-4.888-.08-6.595zm-2.88 13.066c-.07 1.563-.333 2.406-.55 2.97a5.341 5.341 0 0 1-3.004 3.024l-.036.012c-.56.219-1.411.482-2.968.55-1.688.075-2.194.094-6.464.094-4.269 0-4.782-.019-6.464-.094-1.563-.069-2.406-.331-2.97-.55a4.953 4.953 0 0 1-1.836-1.192l-.001-.001a4.978 4.978 0 0 1-1.184-1.803L3.6 25.45c-.218-.563-.48-1.413-.549-2.97-.075-1.688-.094-2.195-.094-6.464 0-4.27.019-4.784.094-6.464.069-1.563.331-2.406.549-2.97a4.897 4.897 0 0 1 1.198-1.837l.002-.002a4.972 4.972 0 0 1 1.806-1.182l.034-.011c.56-.219 1.411-.48 2.968-.55 1.688-.074 2.195-.093 6.464-.093 4.275 0 4.782.019 6.464.093 1.563.069 2.406.331 2.97.55a4.91 4.91 0 0 1 1.837 1.194c.531.52.938 1.144 1.195 1.84.218.56.48 1.411.549 2.968.075 1.688.094 2.194.094 6.464 0 4.269-.019 4.768-.094 6.458z"/>
      <path d="M16.059 7.782a8.223 8.223 0 0 0-8.219 8.221 8.223 8.223 0 0 0 16.442.008v-.009a8.223 8.223 0 0 0-8.221-8.221zm0 13.552a5.333 5.333 0 0 1 .001-10.666h.001a5.334 5.334 0 1 1 0 10.668z"/>
      <path d="M26.525 7.458a1.92 1.92 0 0 1-3.84 0 1.92 1.92 0 0 1 3.84 0z"/>
    </symbol>
    <symbol id="icon-close" viewBox="0 0 32 32">
      <path d="M26.667 9.081l-1.97-1.97-7.808 7.808-7.808-7.808-1.97 1.97 7.808 7.808-7.808 7.808 1.97 1.97 7.808-7.808 7.808 7.808 1.97-1.97-7.808-7.808 7.808-7.808z"></path>
    </symbol>
    <symbol id="icon-email" viewBox="0 0 32 32">
      <path d="M26.667 5.333H5.334A2.663 2.663 0 0 0 2.681 8l-.013 16c0 1.467 1.2 2.667 2.667 2.667h21.333c1.467 0 2.667-1.2 2.667-2.667V8c0-1.467-1.2-2.667-2.667-2.667zM26.133 11l-9.427 5.893a1.346 1.346 0 0 1-1.413 0L5.866 11a1.132 1.132 0 1 1 1.2-1.92l8.933 5.587 8.933-5.587a1.132 1.132 0 1 1 1.2 1.92z"/>
    </symbol>
    <symbol id="icon-phone" viewBox="0 0 32 32">
      <path d="m24.882 19.773-3.268-.373a2.561 2.561 0 0 0-2.11.733L17.137 22.5a19.357 19.357 0 0 1-8.478-8.478l2.38-2.38a2.561 2.561 0 0 0 .733-2.11l-.373-3.242a2.575 2.575 0 0 0-2.56-2.277H6.613c-1.454 0-2.663 1.209-2.573 2.663.682 10.987 9.469 19.761 20.443 20.443 1.454.09 2.663-1.119 2.663-2.573V22.32a2.549 2.549 0 0 0-2.264-2.547z"/>
    </symbol>
    <symbol id="icon-person" viewBox="0 0 32 32">
      <path d="M16 16c2.947 0 5.333-2.387 5.333-5.333S18.946 5.334 16 5.334c-2.947 0-5.333 2.387-5.333 5.333S13.054 16 16 16zm0 2.667c-3.56 0-10.667 1.787-10.667 5.333v1.333c0 .733.6 1.333 1.333 1.333h18.667c.733 0 1.333-.6 1.333-1.333V24c0-3.547-7.107-5.333-10.667-5.333z"/>
    </symbol>
    <symbol id="icon-check" viewBox="0 0 34 32">
      <path fill="var(--color1, #ff6c00)" d="M4.267 0h25.6a4.267 4.267 0 0 1 4.267 4.267v23.467a4.267 4.267 0 0 1-4.267 4.267h-25.6A4.267 4.267 0 0 1 0 27.734V4.267A4.267 4.267 0 0 1 4.267 0z"/>
      <path fill="var(--color2, #fff)" stroke="var(--color2, #fff)" stroke-width=".427" d="m8.442 16.537-.147-.14-2.205 2.088 7.767 7.41 16.318-15.567-2.19-2.089-14.128 13.465-5.416-5.167z"/>
    </symbol> 
    <symbol id="icon-mail-footer" viewBox="0 0 32 32">
      <path stroke-linejoin="round" stroke-linecap="round" stroke-width="1.333" d="M6.4 6.667h19.2c1.32 0 2.4 1.05 2.4 2.333v14c0 1.283-1.08 2.333-2.4 2.333H6.4C5.08 25.333 4 24.283 4 23V9c0-1.283 1.08-2.333 2.4-2.333z"/>
      <path stroke-linejoin="round" stroke-linecap="round" stroke-width="1.333" d="m26.667 9.333-10.667 8-10.667-8"/>
    </symbol>
    <symbol id="icon-phone-footer" viewBox="0 0 32 32">
      <path stroke-linejoin="round" stroke-linecap="round" stroke-width="1.333" d="M26.666 21.337v3.218a2.146 2.146 0 0 1-2.338 2.145 21.239 21.239 0 0 1-9.257-3.293 20.914 20.914 0 0 1-6.436-6.436 21.221 21.221 0 0 1-3.293-9.3 2.144 2.144 0 0 1 2.134-2.338h3.218a2.144 2.144 0 0 1 2.145 1.845c.136 1.03.388 2.041.751 3.014a2.144 2.144 0 0 1-.483 2.263l-1.362 1.362a17.162 17.162 0 0 0 6.436 6.436l1.362-1.362a2.146 2.146 0 0 1 2.263-.483c.973.363 1.984.615 3.014.751a2.144 2.144 0 0 1 1.845 2.177z"/>
    </symbol>
    <symbol id="icon-map-pin" viewBox="0 0 32 32">
      <path stroke-linejoin="round" stroke-linecap="round" stroke-width="1.333" d="M26.667 13.818C26.667 21.454 16 28 16 28S5.333 21.455 5.333 13.818C5.333 8.396 10.109 4 16 4s10.667 4.396 10.667 9.818v0z"/>
      <path stroke-linejoin="round" stroke-linecap="round" stroke-width="1.333" d="M16 18.667a4 4 0 1 0 0-8 4 4 0 0 0 0 8z"/>
    </symbol>   
</defs>
</svg>